<svg width="20" height="20" viewBox="0 0 20 20" fill="none" xmlns="http://www.w3.org/2000/svg">
<mask id="mask0_102_12" style="mask-type:alpha" maskUnits="userSpaceOnUse" x="0" y="0" width="20" height="20">
<rect width="20" height="20" fill="#D9D9D9"/>
</mask>
<g mask="url(#mask0_102_12)">
<path d="M4.75678 16.5834C4.38706 16.5834 4.0713 16.4525 3.80949 16.1909C3.54783 15.929 3.41699 15.6133 3.41699 15.2436V4.75648C3.41699 4.38676 3.54783 4.07099 3.80949 3.80919C4.0713 3.54752 4.38706 3.41669 4.75678 3.41669H8.52762C8.51053 3.02349 8.64303 2.67523 8.92512 2.37189C9.20706 2.06842 9.56546 1.91669 10.0003 1.91669C10.4405 1.91669 10.8016 2.06842 11.0837 2.37189C11.3657 2.67523 11.4955 3.02349 11.473 3.41669H15.2439C15.6136 3.41669 15.9294 3.54752 16.1912 3.80919C16.4528 4.07099 16.5837 4.38676 16.5837 4.75648V15.2436C16.5837 15.6133 16.4528 15.929 16.1912 16.1909C15.9294 16.4525 15.6136 16.5834 15.2439 16.5834H4.75678ZM4.75678 15.5H15.2439C15.308 15.5 15.3668 15.4733 15.4201 15.4198C15.4736 15.3665 15.5003 15.3077 15.5003 15.2436V4.75648C15.5003 4.69231 15.4736 4.63356 15.4201 4.58023C15.3668 4.52676 15.308 4.50002 15.2439 4.50002H4.75678C4.69262 4.50002 4.63387 4.52676 4.58053 4.58023C4.52706 4.63356 4.50033 4.69231 4.50033 4.75648V15.2436C4.50033 15.3077 4.52706 15.3665 4.58053 15.4198C4.63387 15.4733 4.69262 15.5 4.75678 15.5ZM6.20866 13.6954H11.792V12.6123H6.20866V13.6954ZM6.20866 10.5417H13.792V9.45835H6.20866V10.5417ZM6.20866 7.38773H13.792V6.3046H6.20866V7.38773ZM10.0003 4.08023C10.1448 4.08023 10.2642 4.03301 10.3587 3.93856C10.4531 3.84412 10.5003 3.72467 10.5003 3.58023C10.5003 3.43578 10.4531 3.31634 10.3587 3.2219C10.2642 3.12745 10.1448 3.08023 10.0003 3.08023C9.85588 3.08023 9.73644 3.12745 9.64199 3.2219C9.54755 3.31634 9.50033 3.43578 9.50033 3.58023C9.50033 3.72467 9.54755 3.84412 9.64199 3.93856C9.73644 4.03301 9.85588 4.08023 10.0003 4.08023Z" fill="#1C1B1F"/>
</g>
</svg>
