<svg width="20" height="20" viewBox="0 0 20 20" fill="none" xmlns="http://www.w3.org/2000/svg">
<mask id="mask0_102_24" style="mask-type:alpha" maskUnits="userSpaceOnUse" x="0" y="0" width="20" height="20">
<rect width="20" height="20" fill="#D9D9D9"/>
</mask>
<g mask="url(#mask0_102_24)">
<path d="M17.5837 5.75648V14.2436C17.5837 14.609 17.4541 14.9236 17.1951 15.1875C16.9361 15.4514 16.619 15.5834 16.2439 15.5834H3.75678C3.39137 15.5834 3.07671 15.4514 2.81283 15.1875C2.54894 14.9236 2.41699 14.609 2.41699 14.2436V5.75648C2.41699 5.39106 2.54894 5.07641 2.81283 4.81252C3.07671 4.54863 3.39137 4.41669 3.75678 4.41669H16.2439C16.619 4.41669 16.9361 4.54863 17.1951 4.81252C17.4541 5.07641 17.5837 5.39106 17.5837 5.75648ZM3.50033 7.33669H16.5003V5.75648C16.5003 5.69231 16.4736 5.63356 16.4201 5.58023C16.3668 5.52676 16.308 5.50002 16.2439 5.50002H3.75678C3.69262 5.50002 3.63387 5.52676 3.58053 5.58023C3.52706 5.63356 3.50033 5.69231 3.50033 5.75648V7.33669ZM3.50033 9.66335V14.2436C3.50033 14.3077 3.52706 14.3665 3.58053 14.4198C3.63387 14.4733 3.69262 14.5 3.75678 14.5H16.2439C16.308 14.5 16.3668 14.4733 16.4201 14.4198C16.4736 14.3665 16.5003 14.3077 16.5003 14.2436V9.66335H3.50033Z" fill="#1C1B1F"/>
</g>
</svg>
