<svg width="117" height="30" viewBox="0 0 117 30" fill="none" xmlns="http://www.w3.org/2000/svg">
<g clip-path="url(#clip0_102_49)">
<path d="M1.70731 6.93928L0 2.54675H9.00429C10.8753 2.54675 12.4189 2.80376 13.6584 3.31778C14.898 3.8318 15.8101 4.69629 16.4182 5.88787C17.0263 7.07946 17.3303 8.73834 17.3303 10.8178C17.3303 13.6215 16.6755 15.6776 15.3658 16.9626C14.056 18.2477 12.0447 18.9019 9.3551 18.9486V14.2056C9.82286 13.972 10.1971 13.5982 10.4309 13.0374C10.6648 12.4767 10.7818 11.729 10.7818 10.7711C10.7818 9.71965 10.6882 8.90189 10.5245 8.36451C10.3374 7.82713 10.0567 7.4533 9.61237 7.26638C9.168 7.07946 8.58331 6.96264 7.81151 6.96264H1.70731V6.93928ZM1.70731 8.5047H7.78812V25.0234H1.70731V8.5047Z" fill="#1446FF"/>
<path d="M23.4109 21.1449V24.9766C22.873 25.2103 22.2883 25.3271 21.6568 25.3271C20.8148 25.3271 20.043 25.1168 19.318 24.6963C18.593 24.2757 17.9849 23.6449 17.5405 22.8505C17.0728 22.0327 16.8623 21.0514 16.8623 19.9066C16.8623 18.1542 17.4704 16.8224 18.6865 15.8879C19.9027 14.9533 21.4931 14.486 23.4109 14.4626V17.7804C23.0834 17.9206 22.8028 18.1308 22.6157 18.3879C22.4286 18.6449 22.3117 18.972 22.3117 19.3692C22.3117 19.8598 22.4052 20.2337 22.6157 20.5374C22.8262 20.8411 23.0834 21.0514 23.3875 21.1449H23.4109ZM24.9545 12.7337C24.9545 12.1262 24.744 11.729 24.323 11.4953C23.902 11.2851 23.3641 11.1682 22.7326 11.1682C21.9374 11.1682 21.189 11.2383 20.4406 11.3785C19.7156 11.5187 18.9906 11.729 18.2656 12.0094V7.64019C19.2011 7.42991 20.1834 7.243 21.189 7.05608C22.1947 6.86917 23.2238 6.79907 24.2294 6.79907C25.3754 6.79907 26.4279 6.93926 27.3868 7.21963C28.3457 7.50001 29.1175 8.01403 29.7022 8.73832C30.2869 9.46262 30.5675 10.514 30.5675 11.8692V25H25.7029L24.9545 22.3131V12.7337Z" fill="#1446FF"/>
<path d="M52.8566 7.03272V11.1916C52.0146 11.2617 51.5001 11.7056 51.2662 12.4533C51.0323 13.2009 50.9154 14.3224 50.9154 15.8178C50.9154 17.3131 51.0323 18.2477 51.2896 18.8318C51.5469 19.4159 52.0146 19.7196 52.6929 19.7196H52.8566V23.4112C52.2251 23.6682 51.5469 23.7851 50.7985 23.7851C49.6758 23.7851 48.7403 23.5514 47.9919 23.1075C47.2435 22.6636 46.6822 22.0561 46.2612 21.2617C45.8403 20.4907 45.5596 19.6028 45.3725 18.5981C45.1854 17.6168 45.1152 16.5654 45.1152 15.4907C45.1152 12.3598 45.6298 10.1402 46.6822 8.80842C47.7347 7.47664 49.2549 6.79907 51.2662 6.79907C51.5703 6.79907 51.8275 6.79907 52.0848 6.86917C52.342 6.91589 52.5993 6.96262 52.8566 7.03272ZM54.4236 9.60281L55.2655 7.07945H60.0366V22.8505C60.0366 25.2337 59.4285 27.0327 58.2358 28.2243C57.043 29.4159 55.3357 30.0234 53.1372 30.0234C52.2719 30.0234 51.4299 29.9766 50.6114 29.9066C49.7694 29.8365 48.8105 29.7196 47.7347 29.5794V25.3271C48.4363 25.4206 49.0911 25.4673 49.6758 25.5374C50.2605 25.5841 50.892 25.6075 51.5235 25.6075C52.4356 25.6075 53.1372 25.4439 53.6518 25.0935C54.1429 24.743 54.4002 24.2056 54.4002 23.4346V9.60281H54.4236Z" fill="#1446FF"/>
<path d="M68.4558 20.8645V24.9299C67.7776 25.1636 67.0993 25.2804 66.4679 25.2804C65.0412 25.2804 63.8484 24.8365 62.8895 23.9253C61.9306 23.014 61.4629 21.6823 61.4629 19.9066V7.05609H67.076V18.972C67.076 20.0935 67.5437 20.7243 68.4558 20.8411V20.8645ZM69.6954 22.6168V7.05609H75.3084V25H70.5373L69.6954 22.5935V22.6168Z" fill="#1446FF"/>
<path d="M82.8161 21.1449V24.9766C82.2782 25.2103 81.6935 25.3271 81.0621 25.3271C80.2201 25.3271 79.4483 25.1168 78.7233 24.6963C77.9983 24.2757 77.3902 23.6449 76.9458 22.8505C76.4781 22.0327 76.2676 21.0514 76.2676 19.9066C76.2676 18.1542 76.8757 16.8224 78.0918 15.8879C79.308 14.9533 80.8984 14.486 82.8161 14.4626V17.7804C82.4887 17.9206 82.2081 18.1308 82.021 18.3879C81.8339 18.6449 81.7169 18.972 81.7169 19.3692C81.7169 19.8598 81.8105 20.2337 82.021 20.5374C82.2315 20.8411 82.4887 21.0514 82.7928 21.1449H82.8161ZM84.3831 12.7337C84.3831 12.1262 84.1726 11.729 83.7517 11.4953C83.3307 11.2617 82.7928 11.1682 82.1613 11.1682C81.3661 11.1682 80.6177 11.2383 79.8693 11.3785C79.1443 11.5187 78.4193 11.729 77.6942 12.0094V7.64019C78.6297 7.42991 79.612 7.243 80.6177 7.05608C81.6234 6.86917 82.6524 6.79907 83.6581 6.79907C84.8041 6.79907 85.8566 6.93926 86.8155 7.21963C87.7744 7.50001 88.5462 8.01403 89.1308 8.73832C89.7155 9.46262 89.9962 10.514 89.9962 11.8692V25H85.1315L84.3831 22.3131V12.7337Z" fill="#1446FF"/>
<path d="M97.0359 25H91.4229V7.0561H96.194L97.0359 9.46264V25ZM98.2287 12.4533V7.54675C99.1876 6.89255 100.404 6.68227 101.854 6.96264V12.1963C101.269 12.1963 100.661 12.1963 100.053 12.2664C99.4448 12.3131 98.8368 12.3598 98.2287 12.4533Z" fill="#1446FF"/>
<path d="M109.712 6.96263V11.215C108.893 11.3084 108.379 11.7757 108.145 12.6402C107.911 13.5047 107.794 14.7897 107.794 16.4486C107.794 18.1075 107.911 19.2523 108.168 19.9299C108.426 20.6075 108.893 20.9346 109.572 20.9346H109.689V24.9533C109.057 25.1869 108.402 25.3037 107.724 25.3037C106.578 25.3037 105.643 25.0701 104.894 24.5794C104.146 24.0888 103.561 23.4112 103.14 22.5701C102.719 21.7056 102.415 20.7477 102.228 19.6729C102.041 18.5981 101.971 17.4766 101.971 16.2851C101.971 12.8738 102.509 10.4439 103.584 8.97197C104.66 7.52337 106.204 6.77571 108.215 6.77571C108.449 6.77571 108.683 6.77571 108.94 6.82244C109.198 6.8458 109.431 6.89253 109.689 6.93926L109.712 6.96263ZM111.326 2.28973L116.939 1.44861V25.0234H112.168L111.326 22.5467V2.28973Z" fill="#1446FF"/>
<path d="M37.1871 12.7337L34.5677 23.9953L30.5918 7.05609H36.3686L37.1871 12.7337Z" fill="#1446FF"/>
<path d="M34.708 29.6963L41.7009 0H47.314L40.1574 28.9486" fill="#F7C903"/>
</g>
<defs>
<clipPath id="clip0_102_49">
<rect width="116.939" height="30" fill="white"/>
</clipPath>
</defs>
</svg>
