<svg width="20" height="20" viewBox="0 0 20 20" fill="none" xmlns="http://www.w3.org/2000/svg">
<mask id="mask0_102_42" style="mask-type:alpha" maskUnits="userSpaceOnUse" x="0" y="0" width="20" height="20">
<rect width="20" height="20" fill="#D9D9D9"/>
</mask>
<g mask="url(#mask0_102_42)">
<path d="M10 10C9.16667 10 8.45833 9.70833 7.875 9.125C7.29167 8.54167 7 7.83333 7 7C7 6.16667 7.29167 5.45833 7.875 4.875C8.45833 4.29167 9.16667 4 10 4C10.8333 4 11.5417 4.29167 12.125 4.875C12.7083 5.45833 13 6.16667 13 7C13 7.83333 12.7083 8.54167 12.125 9.125C11.5417 9.70833 10.8333 10 10 10ZM4 16V14C4 13.6806 4.08681 13.3785 4.26042 13.0938C4.43403 12.809 4.67361 12.5694 4.97917 12.375C5.74306 11.9306 6.55063 11.5903 7.40188 11.3542C8.25313 11.1181 9.11771 11 9.99563 11C10.8735 11 11.7396 11.1181 12.5938 11.3542C13.4479 11.5903 14.2569 11.9306 15.0208 12.375C15.3264 12.5556 15.566 12.7917 15.7396 13.0833C15.9132 13.375 16 13.6806 16 14V16H4ZM5.5 14.5H14.5V14C14.5 13.9281 14.479 13.8627 14.4369 13.804C14.3949 13.7451 14.3396 13.6993 14.2708 13.6667C13.6319 13.2778 12.9514 12.9861 12.2292 12.7917C11.5069 12.5972 10.7639 12.5 10 12.5C9.23611 12.5 8.49306 12.5972 7.77083 12.7917C7.04861 12.9861 6.36806 13.2778 5.72917 13.6667C5.65972 13.7222 5.60417 13.7758 5.5625 13.8275C5.52083 13.8793 5.5 13.9368 5.5 14V14.5ZM10.0044 8.5C10.4181 8.5 10.7708 8.35271 11.0625 8.05812C11.3542 7.76354 11.5 7.40937 11.5 6.99562C11.5 6.58187 11.3527 6.22917 11.0581 5.9375C10.7635 5.64583 10.4094 5.5 9.99563 5.5C9.58188 5.5 9.22917 5.64729 8.9375 5.94188C8.64583 6.23646 8.5 6.59063 8.5 7.00438C8.5 7.41813 8.64729 7.77083 8.94187 8.0625C9.23646 8.35417 9.59062 8.5 10.0044 8.5Z" fill="#1C1B1F"/>
</g>
</svg>
